<svg id="Component_33_33" data-name="Component 33 – 33" xmlns="http://www.w3.org/2000/svg" width="30.673" height="30.673" viewBox="0 0 30.673 30.673">
  <path id="Path_11481" data-name="Path 11481" d="M30.735,30.671a2.552,2.552,0,0,1-1.438-.443l-6.461-4.4-6.461,4.4a2.557,2.557,0,0,1-3.916-2.743l2.035-8.019-6.1-5.2a2.559,2.559,0,0,1,1.517-4.5l7.719-.436L20.44,1.677a2.552,2.552,0,0,1,4.795,0l2.808,7.651,7.719.436a2.559,2.559,0,0,1,1.517,4.5l-6.1,5.207,2.035,8.019a2.553,2.553,0,0,1-2.481,3.183Z" transform="translate(-7.5)" fill="#4090f7"/>
</svg>
