<svg xmlns="http://www.w3.org/2000/svg" width="54.836" height="35.5" viewBox="0 0 54.836 35.5">
  <g id="flag_SGD" transform="translate(177 186.686)">
    <rect id="Rectangle_5" data-name="Rectangle 5" width="54.836" height="23.762" transform="translate(-177 -174.949)" fill="#f2f3f4"/>
    <path id="Path_17" data-name="Path 17" d="M147.1,266.078q13.49.007,26.98.013,12.637,0,25.273,0c.4,0,.793.045,1.19.07a1.356,1.356,0,0,1,.562,1.249c-.014,5.308-.007,10.617-.013,15.925,0,.24.1.52-.166.7-.369-.012-.738-.034-1.107-.034q-26.215,0-52.431.015c-.753,0-1-.154-.99-.961.041-5.18.03-10.361.01-15.541A1.48,1.48,0,0,1,147.1,266.078Zm12.373,2.727a6.242,6.242,0,0,0-7.22,2.987,6.576,6.576,0,0,0,1.274,8.174c1.3,1.261,4.273,2.266,5.974,1.312-3.182-.839-5.2-2.752-5.257-6.09C154.192,271.729,156.208,269.723,159.477,268.8Zm-1.165,3.557c-.3.618-.5,1.108-1.161,1.019-.124-.016-.27.231-.114.3.638.3.447.875.443,1.469a1.726,1.726,0,0,1,1.443-.178c.568.144-.277-.927.438-1.106a.369.369,0,0,0,.134-.1c.223-.21.13-.423-.112-.4C158.751,273.426,158.564,272.995,158.312,272.362Zm6.066,2.743a6.713,6.713,0,0,1,1.408-.114c.589-.077-.009-1.075.691-1.327.142-.051-.068-.318-.24-.307-.5.031-.593-.44-.879-.631-.531-.356-.308.71-.842.607a.884.884,0,0,0-.416.049c-.157.05-.252.247-.118.319C164.59,274.027,164.43,274.576,164.377,275.105Zm1.035,2.614a2.863,2.863,0,0,1-1.284-.866c-.152-.164-.339-.167-.387.041-.116.51-.614.48-.867.7-.414.367.654.868.2,1.48-.072.1.164.262.276.133.481-.552.955-.054,1.52.069C164.626,278.607,164.661,278.086,165.413,277.719Zm-6.648,1.585c.485-.246.908-.608,1.4-.123.136.134.391-.052.287-.227-.368-.617.278-.879.51-1.411-.574.027-1.076.032-1.173-.621-.024-.162-.314-.3-.352-.057-.113.7-.749.616-1.387.9C158.979,278.047,158.715,278.7,158.765,279.3Zm3-9.379c-.274.5-.492.921-1.083.889a.2.2,0,0,0-.091.367c.564.307.312.84.39,1.384.546-.52,1.078-.321,1.772.039-.213-.631-.4-1.1.19-1.409a.2.2,0,0,0-.106-.395C162.226,270.865,162.058,270.385,161.769,269.925Z" transform="translate(-323.332 -452.764)" fill="#e93747"/>
    <path id="Path_18" data-name="Path 18" d="M183.541,280.648c-3.268.918-5.285,2.924-5.229,6.383.054,3.338,2.075,5.251,5.257,6.09-1.7.954-4.669-.051-5.974-1.312a6.576,6.576,0,0,1-1.274-8.174A6.242,6.242,0,0,1,183.541,280.648Z" transform="translate(-347.397 -464.608)" fill="#f3e8e8"/>
    <path id="Path_19" data-name="Path 19" d="M209.582,302.848c.252.633.44,1.065,1.071,1,.242-.023.335.191.112.4a.369.369,0,0,1-.134.1c-.715.179.13,1.25-.438,1.106a1.726,1.726,0,0,0-1.443.178c0-.595.2-1.167-.443-1.469-.156-.074-.01-.321.114-.3C209.079,303.956,209.282,303.466,209.582,302.848Z" transform="translate(-374.602 -483.251)" fill="#f3d4d5"/>
    <path id="Path_20" data-name="Path 20" d="M249.357,307c.052-.529.212-1.078-.4-1.405-.134-.072-.038-.269.118-.319a.884.884,0,0,1,.416-.049c.534.1.311-.962.842-.607.286.192.38.663.879.631.172-.011.381.256.24.307-.7.252-.1,1.25-.691,1.327A6.715,6.715,0,0,0,249.357,307Z" transform="translate(-408.312 -484.662)" fill="#f3d3d4"/>
    <path id="Path_21" data-name="Path 21" d="M244.866,329.417c-.752.367-.786.888-.547,1.561-.565-.123-1.039-.621-1.52-.069-.112.129-.348-.037-.276-.133.459-.612-.609-1.113-.2-1.48.253-.224.751-.194.867-.7.047-.208.235-.205.387-.041A2.863,2.863,0,0,0,244.866,329.417Z" transform="translate(-402.785 -504.462)" fill="#f3d1d2"/>
    <path id="Path_22" data-name="Path 22" d="M215.272,331.013c-.05-.608.214-1.257-.717-1.537.638-.286,1.275-.2,1.387-.9.038-.238.328-.1.352.057.1.653.6.648,1.173.621-.232.532-.878.794-.51,1.411.1.174-.151.361-.287.227C216.18,330.4,215.757,330.767,215.272,331.013Z" transform="translate(-379.839 -504.473)" fill="#f3d4d5"/>
    <path id="Path_23" data-name="Path 23" d="M230.119,288.587c.289.46.458.941,1.073.876a.2.2,0,0,1,.106.395c-.588.3-.4.778-.19,1.409-.694-.36-1.227-.559-1.772-.039-.078-.544.174-1.077-.39-1.384a.2.2,0,0,1,.091-.367C229.627,289.508,229.845,289.082,230.119,288.587Z" transform="translate(-391.683 -471.427)" fill="#f3d6d7"/>
  </g>
</svg>
