<svg xmlns="http://www.w3.org/2000/svg" width="54.089" height="35.497" viewBox="0 0 54.089 35.497">
  <g id="flag_USD" transform="translate(0 0.003)">
    <path id="Path_738" data-name="Path 738" d="M126.279,244.8h.106c.05.149.187.091.287.12a1.23,1.23,0,0,1,.48,1.1c-.02.508.01,1.018.019,1.528q-.065,1.369,0,2.737c-.04.909-.046,1.817,0,2.725a24.727,24.727,0,0,0,0,2.733,26.28,26.28,0,0,0,0,2.7,27.141,27.141,0,0,0,0,2.736c-.009.521-.041,1.042-.019,1.561a1.1,1.1,0,0,1-.693,1.158c-.211.006-.421.018-.632.018q-11.256,0-22.512.01a1.391,1.391,0,0,1-1.332-.641V245.54c.19-.314.362-.649.8-.658.088.007.175.021.262.021h22.793C125.99,244.9,126.16,244.953,126.279,244.8Zm-16.748,8.549c-.1.638-.468.812-1.057.773a.836.836,0,0,1,.394,1.264.886.886,0,0,1,1.346,0,.872.872,0,0,1,.388-1.267C109.968,254.206,109.694,253.9,109.531,253.349Zm-3.562-4.152c.433.488.427.488.435,1.043,0,.353.209.144.292.069a.433.433,0,0,1,.675.013.257.257,0,0,0,.318.073c-.138-.4-.2-.793.283-1.034.084-.042.025-.2-.068-.182-.545.112-.694-.287-.926-.752.016.754-.5.752-1.009.773Zm17.176.081c-.706-.254-.706-.254-1.1-.847-.055.626-.421.822-1.009.8a.845.845,0,0,1,.4,1.264c.429-.375.794-.454,1.175-.08.074.073.2-.04.149-.119-.289-.483.04-.752.385-1.018Zm-10.052-.008a1.461,1.461,0,0,1-1.076-.783c-.133.43-.3.8-.843.7-.1-.019-.143.142-.059.183.487.238.427.63.3,1.116a.953.953,0,0,1,1.358-.031c-.473-.613-.031-.883.321-1.18Zm11.551,7.321c-.2.44-.35.824-.9.72-.133-.025-.129.174-.028.218.516.226.334.633.207,1.16.456-.378.824-.546,1.209-.152.06.062.191-.041.135-.131-.309-.493.062-.74.406-1.066-.561.039-.933-.146-1.029-.749Zm-9.009-8.951c-.573.023-.946-.165-1.009-.8-.3.3-.209.849-.744.729-.093-.021-.235-.036-.276.088-.051.154.1.212.2.268a.4.4,0,0,1,.175.579.256.256,0,0,0,.073.377c.322-.53.725-.277,1.166-.042-.266-.539-.064-.889.416-1.2Zm9.008-.752c-.206.4-.292.82-.826.69a.19.19,0,0,0-.162.092c-.033.1.05.162.127.2.342.171.36.426.211.737a.172.172,0,0,0,.076.253.716.716,0,0,1,1.054-.06c.177.147.155-.137.106-.241a.452.452,0,0,1,.224-.68c.079-.042.2-.1.127-.291a.733.733,0,0,1-.937-.7Zm-14.032,10.427c-.731.227-.865-.262-1.086-.728-.093.607-.469.79-1.03.755.355.327.684.561.42,1.079-.088.173.177.132.265.039.27-.283.509-.208.755.026a.2.2,0,0,0,.278.019c-.226-.449-.141-.838.4-1.19Zm2.513,1.62a.935.935,0,0,1-1.093-.735c-.15.458-.308.777-.813.685-.121-.022-.212.142-.1.2.512.241.388.648.3,1.118a.857.857,0,0,1,1.312,0c-.307-.588-.1-.946.394-1.268Zm-6.734,1.239c.459-.431.854-.353,1.34.158-.135-.588-.269-.98.225-1.257.181-.1-.057-.217-.188-.2a.463.463,0,0,1-.588-.422c-.018-.094-.036-.216-.257-.2.055.632-.44.635-1.1.674.6.329.861.655.568,1.247Zm2.483-11.239c.468-.607.893-.3,1.41.015-.206-.532-.327-.9.16-1.122a.129.129,0,0,0,.071-.174.187.187,0,0,0-.229-.081c-.388.08-.532-.135-.6-.465-.017-.081-.055-.165-.221-.16-.027.553-.414.7-.976.7a.877.877,0,0,1,.385,1.287Zm13.171,9.21c-.041.639-.428.81-.983.794.387.315.672.573.415,1.075-.084.164.158.145.237.062.3-.323.568-.224.841.033.05.047.125.061.236-.043-.331-.457-.04-.8.4-1.108-.69-.137-.69-.137-1.146-.813Zm-1.813-9.251c-.089-.466-.18-.845.294-1.126.174-.1-.074-.211-.2-.193a.459.459,0,0,1-.582-.425c-.019-.092-.029-.219-.265-.187.076.644-.439.62-.945.7a.877.877,0,0,1,.432,1.229.8.8,0,0,1,1.267,0Zm-4.992,9.689c-.386-.606,0-.9.379-1.25a.844.844,0,0,1-1.045-.734c-.17.458-.34.793-.862.7a.113.113,0,0,0-.059.215c.485.233.374.626.289,1.1a.84.84,0,0,1,1.3-.032Zm4.976,0c.022-.367-.3-.744.188-.966.088-.04.2-.111.158-.237s-.182-.1-.276-.086c-.341.06-.472-.127-.539-.416-.022-.094-.029-.219-.24-.206,0,.59-.427.679-.981.7a.892.892,0,0,1,.444,1.231.813.813,0,0,1,1.247-.025Zm-3.127-10.14c-.132.275-.212.629-.322.639-.718.063-.723.251-.222.7.133.12-.193.4-.019.7.367-.424.764-.4,1.231.124-.084-.566-.271-1,.258-1.231.121-.053.017-.223-.093-.2-.534.108-.645-.309-.832-.737Zm-11.934,10.269a1.3,1.3,0,0,1,.288-1.189c.138-.224-.05-.241-.183-.227-.333.035-.537-.072-.594-.423-.014-.087-.032-.224-.216-.2-.113.356-.229.735-.758.627-.11-.022-.229.136-.108.192.518.241.368.66.247,1.247.481-.517.876-.572,1.325-.032Zm10.89.256c.53.285.612.678.4,1.254.443-.553.854-.309,1.363.031-.208-.552-.238-.893.2-1.167.183-.114-.056-.225-.184-.2-.39.066-.529-.155-.607-.475-.02-.085-.054-.169-.215-.139-.037.513-.39.679-.957.691Zm6.051-4c-.125.568-.427.823-1.021.683a1.471,1.471,0,0,1,.413,1.421c.42-.616.829-.431,1.3-.116a.856.856,0,0,1,.394-1.259c-.681.155-.89-.225-1.081-.734Zm-11.523-4.113c-.67.185-.845-.254-1.05-.741-.1.629-.466.812-1.057.786.592.285.644.7.427,1.253.457-.5.871-.331,1.318-.044a.9.9,0,0,1,.363-1.259Zm10.777,2.855a1.635,1.635,0,0,1,1.591.017c-.585-.611-.128-.917.222-1.343-.756.329-.837-.238-1.076-.677a.822.822,0,0,1-1.032.759c.47.319.693.657.3,1.239Zm-15.407-1.242c.675.268.586.73.453,1.313.437-.659.852-.311,1.305-.093-.32-.554-.041-.889.352-1.231-.607.1-.858-.22-1.031-.738-.14.54-.4.854-1.077.745Zm14.316-.351c-.34-.572.01-.9.364-1.289-.694.24-.82-.276-1.057-.7-.071.647-.465.775-1.033.771a.845.845,0,0,1,.4,1.231.894.894,0,0,1,1.323-.017Zm-4.225.367a.855.855,0,0,1,.4,1.244.892.892,0,0,1,1.325-.023c-.384-.593.02-.9.366-1.3-.71.27-.832-.249-1.092-.8-.078.7-.406.916-1,.875Zm-12.18-3.616c.417-.239.743-.437,1.156-.068.161.144.158-.154.113-.248a.426.426,0,0,1,.2-.648c.088-.046.2-.115.158-.234s-.176-.11-.276-.093c-.336.055-.474-.12-.54-.416-.019-.086-.031-.222-.258-.2.053.62-.44.634-.949.712a.8.8,0,0,1,.4,1.191Zm8.2,6.1a.9.9,0,0,1-1.052.772c.571.286.578.712.4,1.24.451-.442.86-.386,1.366.005-.456-.626-.06-.93.321-1.29-.6.1-.888-.172-1.029-.731Zm-.651-1.241a.9.9,0,0,1,1.361.022c-.484-.64,0-.936.327-1.32-.641.163-.883-.177-1.072-.757-.021.728-.475.8-1.041.829.639.267.589.7.43,1.222Zm3.163,6.122c-.114.618-.482.777-1.045.78.555.278.568.706.422,1.28.431-.644.83-.336,1.284-.085-.3-.557-.048-.909.4-1.243a.811.811,0,0,1-1.056-.736Zm6.07.744c-.668.151-.857-.261-1.073-.765-.048.681-.471.787-1.039.8.567.276.621.687.418,1.244a.861.861,0,0,1,1.317-.018.87.87,0,0,1,.382-1.265Zm-3.575-5.619c-.085.629-.478.762-1.041.772.585.269.573.707.434,1.224.44-.45.836-.377,1.286.005a.9.9,0,0,1,.392-1.27c-.631.108-.891-.205-1.066-.736Zm6.51-4.091a.856.856,0,0,1,.38,1.255.889.889,0,0,1,1.344.019c-.348-.6-.065-.957.389-1.322-.706.235-.869-.22-1.084-.832-.144.634-.363,1-1.024.875Zm-9.022-.785c-.011.752-.513.762-1.047.83.631.261.559.705.426,1.216a.814.814,0,0,1,1.28,0,.884.884,0,0,1,.42-1.245c-.558.006-.953-.123-1.074-.806Zm-10.122-.053c-.013.737-.413.855-1,.871.651.247.6.7.453,1.221a.834.834,0,0,1,1.288.008c-.282-.574-.062-.938.44-1.232-.729-.138-.729-.138-1.177-.873Zm5.782,11.786c-.341-.575,0-.9.366-1.276-.68.211-.847-.239-1.057-.718-.092.63-.468.807-1.056.788.615.274.627.7.428,1.229a.889.889,0,0,1,1.323-.028Zm10.427-7.7c-.664.134-.863-.27-1.059-.768-.088.632-.484.786-1.052.8.609.266.589.706.442,1.256.449-.588.844-.328,1.289-.049-.18-.5-.208-.929.384-1.242Zm2.928,0c.569.3.593.725.41,1.292.444-.611.859-.321,1.328-.074-.3-.547-.1-.913.4-1.274-.751.273-.878-.253-1.108-.709a.823.823,0,0,1-1.026.764Zm1.73,7.7c-.354-.585-.021-.91.381-1.26-.635.131-.908-.164-1.052-.742a.882.882,0,0,1-1.07.785c.6.29.591.72.424,1.239a.886.886,0,0,1,1.324-.026Zm-21.426-6.438c.443-.456.851-.38,1.319-.024-.342-.579-.034-.915.36-1.261-.656.155-.849-.258-1.064-.738-.073.622-.461.787-1.029.79.593.276.613.689.417,1.229Zm.63,4.465c-.073.648-.506.747-1.088.789.752.22.543.715.484,1.221.419-.453.827-.371,1.311-.03-.4-.6-.035-.9.36-1.272-.626.15-.884-.161-1.064-.712Zm1.455-4.122c.688.253.536.729.459,1.242.426-.463.822-.38,1.307,0-.336-.566-.132-.937.363-1.286-.684.177-.859-.261-1.08-.726a.834.834,0,0,1-1.045.766Zm9.246-.248c-.067-.81-.067-.81.478-1.493-.734.322-.92-.128-1.131-.6-.1.6-.465.764-1.032.781.626.264.543.708.408,1.216.437-.371.835-.5,1.279.092Z" transform="translate(-101.982 -244.8)" fill="#23398b"/>
    <path id="Path_739" data-name="Path 739" d="M101.982,384.812a1.391,1.391,0,0,0,1.332.641q11.256-.021,22.512-.01c.211,0,.421-.012.632-.018.246.005.492.015.738.015l28.872.006v2.746c-.158-.006-.316-.016-.474-.016H102.456c-.158,0-.316.01-.474.016Z" transform="translate(-101.982 -366.325)" fill="#f2f0f1"/>
    <path id="Path_740" data-name="Path 740" d="M156.069,472.02v2.747H101.983V472.02c.229,0,.457.007.686.007H153.43C154.31,472.026,155.189,472.022,156.069,472.02Z" transform="translate(-101.982 -442.019)" fill="#f2f1f2"/>
    <path id="Path_741" data-name="Path 741" d="M156.069,453.965c-.88,0-1.759.007-2.638.007H102.668c-.229,0-.457,0-.686-.007v-2.747c.175.008.351.023.526.023h53.035c.175,0,.35-.015.526-.023Z" transform="translate(-101.982 -423.963)" fill="#e93747"/>
    <path id="Path_742" data-name="Path 742" d="M156.069,433.163c-.175.008-.351.023-.526.023H102.508c-.175,0-.35-.015-.526-.023v-2.747c.209.013.419.037.628.037h52.83c.21,0,.419-.024.628-.037Z" transform="translate(-101.982 -405.908)" fill="#f2eeef"/>
    <path id="Path_743" data-name="Path 743" d="M156.069,412.947c-.209.013-.419.037-.628.037h-52.83c-.209,0-.419-.024-.628-.037v-2.641c.158-.005.316-.016.474-.016H155.6c.158,0,.316.01.474.016Z" transform="translate(-101.982 -388.439)" fill="#e93546"/>
    <path id="Path_744" data-name="Path 744" d="M101.982,492.794h54.086v2.113c-.261.2-.414.569-.824.547-.158-.006-.316-.018-.474-.018H103.28c-.158,0-.316.012-.474.018-.411.022-.563-.344-.824-.547Z" transform="translate(-101.982 -460.046)" fill="#e93546"/>
    <path id="Path_745" data-name="Path 745" d="M316.966,371.558l-28.872-.006c-.246,0-.492-.01-.738-.015a1.1,1.1,0,0,0,.693-1.158c-.022-.519.011-1.041.019-1.561l28.9-.006Z" transform="translate(-262.879 -352.437)" fill="#e83647"/>
    <path id="Path_746" data-name="Path 746" d="M292.534,268.342q-.066-1.368,0-2.737h28.9v2.747Z" transform="translate(-267.346 -262.855)" fill="#f2f1f2"/>
    <path id="Path_747" data-name="Path 747" d="M292.54,286.358l28.9.006v2.746c-.228-.008-.456-.023-.684-.023H292.544C292.494,288.175,292.5,287.267,292.54,286.358Z" transform="translate(-267.352 -280.871)" fill="#e93747"/>
    <path id="Path_748" data-name="Path 748" d="M321.43,350.756l-28.9.006c-.044-.912-.046-1.824,0-2.736H320.8c.211,0,.421-.01.632-.016Z" transform="translate(-267.344 -334.382)" fill="#f2f0f1"/>
    <path id="Path_749" data-name="Path 749" d="M292.529,307h28.212c.228,0,.456.015.684.023v2.747c-.227-.013-.454-.037-.68-.037H292.531a24.743,24.743,0,0,1,0-2.733Z" transform="translate(-267.337 -298.787)" fill="#f2eeef"/>
    <path id="Path_750" data-name="Path 750" d="M292.545,327.7h28.214c.227,0,.454.024.681.037v2.641c-.211.006-.421.016-.632.016H292.542A26.283,26.283,0,0,1,292.545,327.7Z" transform="translate(-267.352 -316.752)" fill="#e83546"/>
    <path id="Path_751" data-name="Path 751" d="M318.367,248.114h-28.9c-.008-.509-.039-1.02-.019-1.528a1.23,1.23,0,0,0-.48-1.1c.246,0,.492-.014.738-.014h27.152c.228,0,.456-.012.684-.018.454-.008.608.362.824.653Z" transform="translate(-264.28 -245.368)" fill="#e83546"/>
    <path id="Path_752" data-name="Path 752" d="M108.224,512.844c.158-.006.316-.018.474-.018h51.491c.158,0,.316.012.474.018a.423.423,0,0,1-.021.086h-52.4a.412.412,0,0,1-.018-.086Z" transform="translate(-107.4 -477.436)" fill="#ee6e7a"/>
    <path id="Path_753" data-name="Path 753" d="M315.658,244.887c-.228.006-.456.018-.684.018H287.822c-.246,0-.492.009-.738.014-.1-.029-.236.029-.287-.12h28.839A.407.407,0,0,1,315.658,244.887Z" transform="translate(-262.395 -244.8)" fill="#ee6e7a"/>
    <path id="Path_754" data-name="Path 754" d="M131.549,244.8c-.118.153-.289.1-.44.1H108.316c-.087,0-.175-.014-.262-.021a.087.087,0,0,1,.043-.082Z" transform="translate(-107.252 -244.8)" fill="#5f4887"/>
    <path id="Path_759" data-name="Path 759" d="M152.211,309.546c.163.555.437.857,1.072.767a.872.872,0,0,0-.388,1.267.886.886,0,0,0-1.346,0,.836.836,0,0,0-.394-1.264C151.742,310.358,152.109,310.184,152.211,309.546Z" transform="translate(-144.662 -300.997)" fill="#e2e3ec"/>
    <path id="Path_760" data-name="Path 760" d="M132.179,273.041c.51-.018,1.025-.015,1.01-.769.232.465.381.864.926.752.093-.019.152.14.068.182-.488.241-.421.639-.283,1.034a.257.257,0,0,1-.318-.073.433.433,0,0,0-.675-.013c-.083.075-.287.284-.292-.069C132.606,273.529,132.612,273.529,132.179,273.041Z" transform="translate(-128.192 -268.645)" fill="#dcdee9"/>
    <path id="Path_761" data-name="Path 761" d="M248.425,273.141c-.346.267-.674.535-.382,1.018.048.079-.075.191-.149.119-.381-.374-.746-.3-1.175.08a.845.845,0,0,0-.4-1.264c.588.022.955-.174,1.009-.8C247.719,272.887,247.719,272.887,248.425,273.141Z" transform="translate(-227.261 -268.664)" fill="#dcdee9"/>
    <path id="Path_762" data-name="Path 762" d="M172.849,273.5c-.352.3-.793.567-.322,1.18a.953.953,0,0,0-1.358.031c.129-.486.19-.878-.3-1.116-.084-.041-.037-.2.059-.183.541.1.71-.265.843-.7a1.461,1.461,0,0,0,1.078.783Z" transform="translate(-161.737 -269.034)" fill="#dee0ea"/>
    <path id="Path_763" data-name="Path 763" d="M267.037,334.1c.1.6.468.788,1.029.75-.344.326-.715.573-.406,1.066.056.089-.075.192-.135.131-.385-.395-.754-.227-1.209.152.127-.527.309-.934-.207-1.16-.1-.044-.1-.243.028-.218C266.687,334.922,266.838,334.538,267.037,334.1Z" transform="translate(-244.375 -322.307)" fill="#dee0ea"/>
    <path id="Path_764" data-name="Path 764" d="M191.987,261.077c-.479.31-.682.66-.417,1.2-.441-.235-.844-.489-1.166.042-.194-.155-.117-.272-.073-.377a.4.4,0,0,0-.175-.579c-.1-.056-.248-.114-.2-.268.041-.123.183-.108.276-.088.536.12.446-.424.744-.729C191.041,260.912,191.414,261.1,191.987,261.077Z" transform="translate(-178.334 -258.237)" fill="#dcdee9"/>
    <path id="Path_765" data-name="Path 765" d="M267.071,260.616a.733.733,0,0,0,.937.7.2.2,0,0,1-.127.291.452.452,0,0,0-.224.68c.049.1.071.388-.106.241a.716.716,0,0,0-1.054.06.172.172,0,0,1-.076-.253c.15-.311.131-.566-.211-.737-.077-.038-.16-.105-.127-.2a.19.19,0,0,1,.162-.092C266.779,261.436,266.865,261.019,267.071,260.616Z" transform="translate(-244.41 -258.528)" fill="#dee0ea"/>
    <path id="Path_766" data-name="Path 766" d="M153.423,334.8c-.539.351-.624.74-.4,1.19a.2.2,0,0,1-.278-.019c-.246-.234-.484-.309-.755-.026-.088.093-.353.134-.265-.039.264-.518-.065-.753-.42-1.079.561.035.937-.148,1.03-.755C152.558,334.537,152.692,335.027,153.423,334.8Z" transform="translate(-144.794 -322.284)" fill="#dee0ea"/>
    <path id="Path_767" data-name="Path 767" d="M172.857,347.023c-.494.322-.7.679-.394,1.263a.857.857,0,0,0-1.312,0c.092-.47.216-.876-.3-1.118-.117-.055-.026-.219.1-.2.505.092.664-.227.813-.685a.935.935,0,0,0,1.093.74Z" transform="translate(-161.715 -332.888)" fill="#dee0ea"/>
    <path id="Path_768" data-name="Path 768" d="M131.643,348.618c.293-.592.03-.919-.566-1.245.658-.039,1.153-.042,1.1-.674.222-.017.239.1.257.2a.463.463,0,0,0,.588.422c.13-.017.369.1.188.2-.494.276-.36.668-.225,1.257C132.5,348.265,132.1,348.187,131.643,348.618Z" transform="translate(-127.235 -333.243)" fill="#dcdee9"/>
    <path id="Path_769" data-name="Path 769" d="M151.637,263.063a.877.877,0,0,0-.386-1.289c.562,0,.949-.144.976-.7.166-.006.2.078.221.159.068.329.212.545.6.465a.187.187,0,0,1,.229.081.129.129,0,0,1-.071.174c-.487.217-.366.59-.16,1.122C152.53,262.76,152.1,262.456,151.637,263.063Z" transform="translate(-144.746 -258.928)" fill="#dee0ea"/>
    <path id="Path_770" data-name="Path 770" d="M247.463,345.867c.453.676.453.676,1.144.812-.438.31-.73.651-.4,1.108-.111.1-.187.09-.236.043-.273-.257-.539-.356-.841-.033-.078.084-.32.1-.237-.062.257-.5-.028-.76-.415-1.075C247.035,346.677,247.422,346.506,247.463,345.867Z" transform="translate(-227.401 -332.522)" fill="#dee0ea"/>
    <path id="Path_771" data-name="Path 771" d="M229.039,263.073a.8.8,0,0,0-1.266,0,.877.877,0,0,0-.432-1.229c.506-.085,1.021-.06.945-.7.237-.032.246.1.265.187a.459.459,0,0,0,.582.425c.125-.018.372.09.2.193C228.859,262.228,228.951,262.607,229.039,263.073Z" transform="translate(-210.79 -258.979)" fill="#dcdee9"/>
    <path id="Path_772" data-name="Path 772" d="M191.539,336.139a.84.84,0,0,0-1.3.032c.085-.471.2-.864-.289-1.1a.113.113,0,0,1,.059-.215c.522.089.691-.247.862-.7a.844.844,0,0,0,1.045.734C191.538,335.244,191.153,335.533,191.539,336.139Z" transform="translate(-178.282 -322.357)" fill="#dee0ea"/>
    <path id="Path_773" data-name="Path 773" d="M228.975,336.584a.813.813,0,0,0-1.245.018.892.892,0,0,0-.444-1.231c.554-.018.986-.108.981-.7.21-.013.218.112.24.206.067.289.2.476.539.416.094-.017.23-.04.276.086s-.07.2-.158.237C228.68,335.84,229,336.217,228.975,336.584Z" transform="translate(-210.741 -322.806)" fill="#dee0ea"/>
    <path id="Path_774" data-name="Path 774" d="M210.517,272.352c.187.428.3.846.834.734.109-.023.213.147.093.2-.529.234-.342.666-.258,1.231-.467-.525-.864-.548-1.231-.124-.174-.3.153-.58.019-.7-.5-.452-.5-.639.222-.7C210.3,272.981,210.385,272.627,210.517,272.352Z" transform="translate(-195.41 -268.714)" fill="#dcdee9"/>
    <path id="Path_775" data-name="Path 775" d="M115.345,336.72c-.448-.54-.844-.485-1.325.03.121-.587.271-1.007-.247-1.247-.121-.056,0-.214.108-.192.528.108.645-.27.758-.627.184-.026.2.111.216.2.058.35.261.458.594.423.133-.014.321,0,.183.227a1.3,1.3,0,0,0-.287,1.186Z" transform="translate(-112.172 -322.813)" fill="#dee0ea"/>
    <path id="Path_776" data-name="Path 776" d="M208.487,347.427c.567-.012.92-.178.955-.7.16-.03.194.055.215.139.077.32.217.54.607.475.128-.022.367.09.184.2-.44.274-.41.616-.2,1.167-.509-.34-.92-.585-1.363-.031C209.1,348.1,209.017,347.713,208.487,347.427Z" transform="translate(-194.425 -333.264)" fill="#dcdee9"/>
    <path id="Path_777" data-name="Path 777" d="M247.6,321.771c.2.509.4.889,1.085.728a.856.856,0,0,0-.394,1.259c-.47-.315-.879-.5-1.3.116a1.471,1.471,0,0,0-.413-1.421C247.173,322.593,247.475,322.339,247.6,321.771Z" transform="translate(-227.487 -311.608)" fill="#e2e3ec"/>
    <path id="Path_778" data-name="Path 778" d="M153.2,285.752a.9.9,0,0,0-.361,1.254c-.447-.286-.861-.455-1.318.044.216-.558.165-.968-.427-1.253.591.026.962-.157,1.057-.786C152.355,285.5,152.53,285.937,153.2,285.752Z" transform="translate(-144.609 -279.702)" fill="#e2e3ec"/>
    <path id="Path_779" data-name="Path 779" d="M246.736,299.074c.4-.582.173-.92-.294-1.244a.822.822,0,0,0,1.032-.759c.239.439.32,1.006,1.076.677-.35.426-.807.732-.222,1.343A1.635,1.635,0,0,0,246.736,299.074Z" transform="translate(-227.368 -290.168)" fill="#e3e4ec"/>
    <path id="Path_780" data-name="Path 780" d="M131.987,297.916c.676.109.938-.2,1.079-.749.173.518.424.842,1.031.738-.393.342-.672.677-.352,1.231-.453-.217-.868-.565-1.3.093C132.573,298.647,132.662,298.184,131.987,297.916Z" transform="translate(-128.025 -290.253)" fill="#e3e4ec"/>
    <path id="Path_781" data-name="Path 781" d="M229.067,287.093a.894.894,0,0,0-1.32.01.845.845,0,0,0-.4-1.231c.568,0,.961-.125,1.033-.771.237.426.363.943,1.057.7C229.076,286.188,228.727,286.521,229.067,287.093Z" transform="translate(-210.789 -279.78)" fill="#e3e4ec"/>
    <path id="Path_782" data-name="Path 782" d="M208.414,297.138c.591.041.919-.175,1-.887.26.556.382,1.075,1.092.8-.346.4-.75.71-.366,1.3a.892.892,0,0,0-1.325.023.855.855,0,0,0-.4-1.236Z" transform="translate(-194.361 -289.458)" fill="#e2e3ec"/>
    <path id="Path_783" data-name="Path 783" d="M113.566,263.027a.8.8,0,0,0-.4-1.2c.51-.078,1-.092.949-.712.227-.024.239.112.258.2.066.3.2.472.54.416.1-.016.233-.023.276.093s-.07.188-.158.234a.426.426,0,0,0-.2.648c.045.094.048.393-.113.248C114.309,262.59,113.983,262.788,113.566,263.027Z" transform="translate(-111.694 -258.963)" fill="#dcdee9"/>
    <path id="Path_784" data-name="Path 784" d="M171.381,321.741c.141.559.429.836,1.035.726-.381.36-.776.664-.321,1.29-.506-.391-.914-.447-1.366-.005.177-.528.17-.954-.4-1.24a.9.9,0,0,0,1.052-.771Z" transform="translate(-161.305 -311.582)" fill="#e2e3ec"/>
    <path id="Path_785" data-name="Path 785" d="M170.579,298.834c.159-.524.208-.954-.424-1.225.566-.029,1.02-.1,1.041-.829.189.58.431.92,1.072.757-.33.383-.811.68-.327,1.32a.9.9,0,0,0-1.362-.023Z" transform="translate(-161.154 -289.916)" fill="#e2e3ec"/>
    <path id="Path_786" data-name="Path 786" d="M190.45,358.708a.811.811,0,0,0,1.057.733c-.443.334-.693.686-.4,1.243-.454-.251-.853-.56-1.284.085.146-.574.133-1-.422-1.28C189.968,359.485,190.337,359.326,190.45,358.708Z" transform="translate(-177.862 -343.668)" fill="#e5e6ed"/>
    <path id="Path_787" data-name="Path 787" d="M229.41,359.31a1.112,1.112,0,0,1-1.694,1.277c.2-.557.149-.968-.418-1.244.568-.012.991-.118,1.039-.8C228.554,359.049,228.743,359.461,229.41,359.31Z" transform="translate(-210.753 -343.526)" fill="#e3e4ec"/>
    <path id="Path_788" data-name="Path 788" d="M209.375,321.78c.175.53.437.844,1.071.731a.9.9,0,0,0-.392,1.27c-.451-.382-.846-.455-1.286-.005.14-.517.151-.955-.434-1.224C208.9,322.542,209.29,322.409,209.375,321.78Z" transform="translate(-194.292 -311.616)" fill="#e3e4ec"/>
    <path id="Path_789" data-name="Path 789" d="M265.521,285.009c.661.129.88-.242,1.03-.881.215.612.378,1.067,1.084.832-.454.365-.737.72-.389,1.322a.889.889,0,0,0-1.344-.019.856.856,0,0,0-.381-1.254Z" transform="translate(-243.928 -278.935)" fill="#e2e3ec"/>
    <path id="Path_790" data-name="Path 790" d="M190.3,284.853c.122.683.517.807,1.08.8a.884.884,0,0,0-.42,1.245.814.814,0,0,0-1.28,0c.133-.511.2-.955-.426-1.216C189.79,285.615,190.293,285.6,190.3,284.853Z" transform="translate(-177.733 -279.564)" fill="#e5e6ed"/>
    <path id="Path_791" data-name="Path 791" d="M113.968,284.448c.448.735.448.735,1.184.868-.5.293-.722.658-.44,1.232a.834.834,0,0,0-1.288-.008c.144-.522.2-.974-.453-1.221C113.556,285.3,113.956,285.185,113.968,284.448Z" transform="translate(-111.52 -279.213)" fill="#e3e4ec"/>
    <path id="Path_792" data-name="Path 792" d="M152.831,360.607a.889.889,0,0,0-1.319.024c.2-.531.188-.954-.428-1.229.588.018.964-.158,1.056-.788.21.479.377.929,1.057.718C152.833,359.7,152.49,360.032,152.831,360.607Z" transform="translate(-144.601 -343.586)" fill="#e5e6ed"/>
    <path id="Path_793" data-name="Path 793" d="M229.416,310.358c-.592.313-.564.739-.379,1.236-.445-.279-.84-.539-1.289.049.146-.55.167-.99-.442-1.256.568-.011.964-.166,1.052-.8C228.553,310.089,228.752,310.493,229.416,310.358Z" transform="translate(-210.759 -301.035)" fill="#e3e4ec"/>
    <path id="Path_794" data-name="Path 794" d="M265.461,310.4a.823.823,0,0,0,1.031-.765c.23.456.357.982,1.108.709-.5.361-.7.726-.4,1.274-.47-.247-.884-.537-1.328.074C266.054,311.123,266.03,310.7,265.461,310.4Z" transform="translate(-243.876 -301.073)" fill="#e5e6ed"/>
    <path id="Path_795" data-name="Path 795" d="M267.123,360.56a.886.886,0,0,0-1.316.023c.166-.519.172-.949-.424-1.239a.882.882,0,0,0,1.07-.785c.143.578.416.873,1.052.742C267.1,359.649,266.769,359.975,267.123,360.56Z" transform="translate(-243.808 -343.538)" fill="#e2e3ec"/>
    <path id="Path_796" data-name="Path 796" d="M113.561,311.657c.2-.541.175-.954-.414-1.234.568,0,.956-.167,1.029-.79.215.48.408.893,1.064.738-.393.346-.7.683-.36,1.261C114.412,311.277,114,311.2,113.561,311.657Z" transform="translate(-111.673 -301.073)" fill="#e5e6ed"/>
    <path id="Path_797" data-name="Path 797" d="M113.9,358.777c.18.552.438.861,1.068.708-.4.371-.756.674-.36,1.272-.484-.342-.893-.423-1.311.03.059-.506.268-1-.484-1.221C113.4,359.524,113.83,359.424,113.9,358.777Z" transform="translate(-111.385 -343.728)" fill="#e2e3ec"/>
    <path id="Path_798" data-name="Path 798" d="M132.077,322.516a.834.834,0,0,0,1.048-.767c.221.465.4.9,1.08.726-.5.348-.7.719-.363,1.286-.485-.382-.881-.466-1.306,0C132.613,323.246,132.765,322.769,132.077,322.516Z" transform="translate(-128.103 -311.59)" fill="#e3e4ec"/>
    <path id="Path_799" data-name="Path 799" d="M191.027,311.884c-.446-.587-.843-.463-1.277-.1.135-.507.217-.951-.408-1.216.567-.016.935-.186,1.032-.781.211.477.4.927,1.131.6C190.96,311.075,190.96,311.075,191.027,311.884Z" transform="translate(-177.807 -301.205)" fill="#e3e4ec"/>
  </g>
</svg>
