<svg xmlns="http://www.w3.org/2000/svg" width="15.596" height="15.594" viewBox="0 0 15.596 15.594">
  <g id="Group_7" data-name="Group 7" transform="translate(-331.108 -235.348)">
    <path id="Path_128" data-name="Path 128" d="M149.038,161.315h-1.2c-.089,0-.179,0-.268,0a.521.521,0,0,1-.514-.484.513.513,0,0,1,.513-.484c.422-.009.844,0,1.267,0,.063,0,.127-.007.187-.01a5.928,5.928,0,0,1,5.345-5.33v-1.183c0-.089,0-.179,0-.268a.523.523,0,0,1,.478-.52.516.516,0,0,1,.491.531c.006.414,0,.828,0,1.242,0,.064.006.127.009.176a5.969,5.969,0,0,1,5.353,5.362c.422,0,.874,0,1.325,0a.944.944,0,0,1,.285.039.482.482,0,0,1,.335.505.523.523,0,0,1-.5.423c-.4.009-.8,0-1.194,0H160.7a5.973,5.973,0,0,1-5.362,5.364v1c0,.138,0,.276,0,.414a.487.487,0,1,1-.969-.011c0-.47,0-.941,0-1.437a5.851,5.851,0,0,1-5.327-5.33Zm5.813,4.39a4.876,4.876,0,1,0-4.875-4.869A4.868,4.868,0,0,0,154.851,165.7Z" transform="translate(184.054 82.316)" fill="#c9c5c5"/>
    <circle id="Ellipse_89" data-name="Ellipse 89" cx="3" cy="3" r="3" transform="translate(336 240)" fill="#c9c5c5"/>
  </g>
</svg>
