<svg xmlns="http://www.w3.org/2000/svg" width="38.097" height="29.973" viewBox="0 0 38.097 29.973">
  <g id="Group_346" data-name="Group 346" transform="translate(4354 -1601.413)">
    <path id="Icon_metro-credit-card" data-name="Icon metro-credit-card" d="M34.994,5.784H5.925A3.364,3.364,0,0,0,2.571,9.138V29.263a3.364,3.364,0,0,0,3.354,3.354l21.2-.1c.933-.777-2.334-13.871,10.794-9.358l.428-14.023a3.364,3.364,0,0,0-3.354-3.354ZM5.925,8.02H34.994a1.133,1.133,0,0,1,1.118,1.118v3.354H4.807V9.138A1.133,1.133,0,0,1,5.925,8.02ZM26.133,30.6,5.925,30.381a1.133,1.133,0,0,1-1.118-1.118V19.2H36.112v2.634C24.267,17.423,26.739,30.6,26.133,30.6ZM7.043,23.673H9.279v4.472H7.043Zm4.472,0h2.236v4.472H11.515Zm4.472,0h2.236v4.472H15.987Z" transform="translate(-4356.571 1595.629)" fill="#9a9998"/>
    <path id="Icon_ionic-ios-time" data-name="Icon ionic-ios-time" d="M10.987,3.375A7.612,7.612,0,1,0,18.6,10.987,7.611,7.611,0,0,0,10.987,3.375Zm.512,8.271a.514.514,0,0,1-.512.512H7.474a.512.512,0,1,1,0-1.025h3V6.3a.512.512,0,0,1,1.025,0Z" transform="translate(-4334.502 1612.787)" fill="#9a9998"/>
  </g>
</svg>
