<svg xmlns="http://www.w3.org/2000/svg" width="19.856" height="19.871" viewBox="0 0 19.856 19.871">
  <g id="Group_7" data-name="Group 7" transform="translate(-422.6 -95.901)">
    <g id="Group_6" data-name="Group 6" transform="translate(422.6 95.901)">
      <path id="Path_135" data-name="Path 135" d="M409.6,246.421v-1.164c.011-.062.024-.124.034-.186.082-.529.128-1.067.251-1.586A9.931,9.931,0,0,1,420.871,236a9.6,9.6,0,0,1,5.2,2.365,9.719,9.719,0,0,1,3.346,8.46,9.472,9.472,0,0,1-2.353,5.5,9.73,9.73,0,0,1-5.833,3.3c-.368.064-.74.1-1.11.151h-1.164c-.127-.015-.254-.031-.381-.045a9.923,9.923,0,0,1-8.819-8.2C409.687,247.162,409.65,246.791,409.6,246.421Zm9.938-1.758c-.066-.063-.118-.11-.167-.159q-1.331-1.33-2.661-2.66a1.792,1.792,0,0,0-.217-.193.82.82,0,0,0-1.19.268.833.833,0,0,0,.195,1.055q1.356,1.36,2.715,2.716c.048.048.092.1.159.171-.073.06-.132.1-.182.15q-1.318,1.316-2.633,2.634a2.289,2.289,0,0,0-.183.2.807.807,0,0,0,.017,1.036.827.827,0,0,0,1.276,0q1.361-1.355,2.716-2.715c.048-.048.1-.094.176-.165.062.076.105.142.16.2q1.315,1.319,2.632,2.634a2.018,2.018,0,0,0,.2.182.807.807,0,0,0,1.006-.012.824.824,0,0,0,.018-1.287q-1.354-1.361-2.714-2.717c-.049-.049-.094-.1-.177-.189a1.45,1.45,0,0,0,.186-.133q1.271-1.266,2.538-2.536c.059-.059.12-.118.178-.178a.83.83,0,1,0-1.165-1.178c-.116.112-.229.228-.343.342Z" transform="translate(-409.6 -235.901)" fill="#8e8e8e"/>
    </g>
  </g>
</svg>
