<?xml version="1.0" encoding="UTF-8"?>
<!DOCTYPE svg PUBLIC "-//W3C//DTD SVG 1.1//EN" "http://www.w3.org/Graphics/SVG/1.1/DTD/svg11.dtd">
<!-- Creator: CorelDRAW 2021.5 -->
<svg xmlns="http://www.w3.org/2000/svg" xml:space="preserve" width="1080px" height="1080px" version="1.1" style="shape-rendering:geometricPrecision; text-rendering:geometricPrecision; image-rendering:optimizeQuality; fill-rule:evenodd; clip-rule:evenodd"
viewBox="0 0 1080 1080"
 xmlns:xlink="http://www.w3.org/1999/xlink"
 xmlns:xodm="http://www.corel.com/coreldraw/odm/2003">
 <defs>
  <style type="text/css">
   <![CDATA[
    .fil0 {fill:none}
    .fil1 {fill:white}
   ]]>
  </style>
 </defs>
 <g id="Layer_x0020_1">
  <metadata id="CorelCorpID_0Corel-Layer"/>
  <rect class="fil0" width="1080" height="1080"/>
  <g id="_1838395946000">
   <g>
    <circle class="fil1" cx="283.64" cy="244.44" r="33.51"/>
    <path class="fil1" d="M287.1 290.24l0 0c-16.12,4.99 -25.53,22.36 -20.91,38.6l23.41 82.24c1.38,4.86 6.46,7.61 11.28,6.11l38.03 -11.77c6.51,-2.01 10.31,-9.02 8.44,-15.58l-22.53 -79.16c-4.62,-16.23 -21.59,-25.43 -37.72,-20.44z"/>
    <rect class="fil1" transform="matrix(0.185688 1.27726 -2.09442 0.148373 435.929 372.578)" width="36" height="71" rx="18" ry="18"/>
    <path class="fil1" d="M386.75 399.57l32.71 -20.46c4.31,-2.7 10.04,-1.38 12.74,2.93l63.04 100.76c6.97,11.15 3.56,25.98 -7.59,32.96l-0.01 0c-11.15,6.97 -25.97,3.56 -32.95,-7.59l-67.94 -108.6z"/>
    <rect class="fil1" transform="matrix(1.91385 -0.471699 0.433274 1.75795 226.397 329.737)" width="17" height="62" rx="8.5" ry="8.5"/>
    <rect class="fil1" transform="matrix(0.140871 1.96608 -1.80593 0.129395 406.201 430.503)" width="17" height="62" rx="8.5" ry="8.5"/>
    <path class="fil1" d="M249.42 423.75c0,0 11.16,43.1 55.41,46.01 44.24,2.91 6.35,-32.57 6.35,-32.57 0,0 -20.84,-0.08 -29.39,-22.74 -8.56,-22.67 -32.37,9.3 -32.37,9.3z"/>
   </g>
   <g>
    <rect class="fil1" x="487.34" y="407.94" width="164.19" height="6.7"/>
    <g>
     <path class="fil1" d="M666.88 409.94c-0.17,-0.13 -0.24,-0.24 -0.41,-0.37l-1.67 -1.46c-0.17,-0.13 -0.25,-0.24 -0.41,-0.37l-4.62 -4.04c-0.26,-0.24 -0.6,-0.49 -0.85,-0.72 -0.19,-0.18 -0.23,-0.22 -0.42,-0.37l-2.9 -2.56c-0.36,-0.33 -2.28,-1.99 -2.6,-2.16 -2.57,-1.33 -5.41,0.92 -4.72,3.67 0.3,1.17 1.55,2.18 2.52,2.95 0.17,0.14 0.24,0.24 0.41,0.38l2.08 1.82c0.19,0.15 0.24,0.2 0.42,0.37 0.2,0.17 0.7,0.56 0.82,0.75 -9.98,-0.06 -20.05,-0.01 -30.05,-0.01 -1.29,0 -3.71,-0.17 -4.75,0.28 -2.61,1.12 -2.63,4.87 0.05,6 0.95,0.4 3.54,0.24 4.77,0.24 3.32,0 6.64,0 9.97,0 6.64,0 13.38,-0.1 20.01,0.01l-1.69 1.51c-0.16,0.13 -0.24,0.24 -0.4,0.37 -0.19,0.15 -0.24,0.2 -0.42,0.37l-1.67 1.45c-0.89,0.75 -1.81,1.43 -2.08,2.62 -0.46,1.96 0.83,3.45 2.25,3.87 1.93,0.59 3.08,-0.64 4.29,-1.75 0.26,-0.24 0.6,-0.49 0.85,-0.72l3.33 -2.93c0.25,-0.24 0.59,-0.49 0.84,-0.72l8.34 -7.33 -1.29 -1.15z"/>
    </g>
    <g>
     <path class="fil1" d="M474.99 409.94c0.17,-0.13 0.24,-0.24 0.4,-0.37l1.68 -1.46c0.17,-0.13 0.24,-0.24 0.41,-0.37l4.62 -4.04c0.26,-0.24 0.6,-0.49 0.85,-0.72 0.19,-0.18 0.23,-0.22 0.41,-0.37l2.91 -2.56c0.36,-0.33 2.28,-1.99 2.6,-2.16 2.57,-1.33 5.41,0.92 4.72,3.67 -0.3,1.17 -1.55,2.18 -2.53,2.95 -0.16,0.14 -0.23,0.24 -0.4,0.38l-2.09 1.82c-0.18,0.15 -0.23,0.2 -0.41,0.37 -0.2,0.17 -0.7,0.56 -0.83,0.75 9.99,-0.06 20.06,-0.01 30.06,-0.01 1.29,0 3.71,-0.17 4.75,0.28 2.61,1.12 2.63,4.87 -0.05,6 -0.96,0.4 -3.55,0.24 -4.77,0.24 -3.32,0 -6.65,0 -9.97,0 -6.65,0 -13.38,-0.1 -20.02,0.01l1.69 1.51c0.17,0.13 0.25,0.24 0.41,0.37 0.19,0.15 0.23,0.2 0.42,0.37l1.67 1.45c0.89,0.75 1.8,1.43 2.08,2.62 0.46,1.96 -0.83,3.45 -2.25,3.87 -1.94,0.59 -3.08,-0.64 -4.3,-1.75 -0.25,-0.24 -0.59,-0.49 -0.85,-0.72l-3.32 -2.93c-0.25,-0.24 -0.59,-0.49 -0.85,-0.72l-8.33 -7.33 1.29 -1.15z"/>
    </g>
   </g>
   <g>
    <circle class="fil1" cx="719.25" cy="244.44" r="33.51"/>
    <path class="fil1" d="M722.72 290.24l0 0c-16.13,4.99 -25.54,22.36 -20.91,38.6l23.4 82.24c1.39,4.86 6.46,7.61 11.29,6.11l38.03 -11.77c6.5,-2.01 10.3,-9.02 8.44,-15.58l-22.53 -79.16c-4.62,-16.23 -21.6,-25.43 -37.72,-20.44z"/>
    <rect class="fil1" transform="matrix(0.185688 1.27726 -2.09442 0.148373 871.545 372.578)" width="36" height="71" rx="18" ry="18"/>
    <path class="fil1" d="M822.36 399.57l32.71 -20.46c4.31,-2.7 10.05,-1.38 12.74,2.93l63.04 100.76c6.98,11.15 3.56,25.98 -7.59,32.96l0 0c-11.15,6.97 -25.98,3.56 -32.95,-7.59l-67.95 -108.6z"/>
    <rect class="fil1" transform="matrix(1.91385 -0.471699 0.433274 1.75795 662.013 329.737)" width="17" height="62" rx="8.5" ry="8.5"/>
    <rect class="fil1" transform="matrix(0.140871 1.96608 -1.80593 0.129395 841.817 430.503)" width="17" height="62" rx="8.5" ry="8.5"/>
    <path class="fil1" d="M685.04 423.75c0,0 11.16,43.1 55.4,46.01 44.25,2.91 6.36,-32.57 6.36,-32.57 0,0 -20.84,-0.08 -29.4,-22.74 -8.55,-22.67 -32.36,9.3 -32.36,9.3z"/>
   </g>
   <rect class="fil1" x="167.32" y="521.87" width="884.64" height="23.46"/>
   <path class="fil1" d="M600.54 784.71l36.53 0.3 36.43 -209.65 2.21 209.07 23.42 0.37 80.96 -203.65 -42.16 203.38c14.98,0.67 26.79,2.29 37.15,-2.16l43.86 -227.71 -58.65 -0.3 -56.4 148.47 -0.63 -148.19 -59.31 -0.28 -43.41 230.35z"/>
   <path class="fil1" d="M109.55 755.42c-43.02,5.81 -35.33,-18.81 -36.94,-52.82l-34.81 -0.71c-6.28,51.05 5.09,88.64 56.65,88.38 44.3,-0.22 72.74,-32.73 68.17,-79.24 -3.87,-39.52 -45.49,-60.71 -62.7,-83.26 -9.56,-12.53 -12.63,-40.75 8.64,-46.25 30.31,-7.82 32.57,19.62 31.47,43.19l36.22 1.07c8.11,-108.98 -106.14,-89.52 -118.23,-32.19 -19.81,93.89 102.88,85.72 51.53,161.83z"/>
   <path class="fil1" d="M219.49 755.52c-9.57,-23.61 5.02,-137.8 38.04,-115.99 14.39,9.5 2.66,57.77 -1.32,73.63 -5.94,23.71 -8.61,47.17 -36.72,42.36zm18.1 -132.23l-3.25 -4.42c-9.01,-8.3 5.72,-3.56 -11.08,-6.13 -6.42,-0.98 -15.38,0.69 -21.61,2.03l-44.52 228.14 28.81 -0.13c7.85,-1.45 4.22,-0.59 8.49,-2.65 6.06,-22.27 5.48,-53.21 15.62,-71.58 27.46,44.17 67.04,20.2 82.34,-56.37 27.28,-136.48 -44.88,-108.12 -54.8,-88.89z"/>
   <path class="fil1" d="M841.62 759.16c-5.64,-16.39 -5.24,-28.57 6.48,-38.56 6.03,-5.16 24.47,-15.19 34.56,-17.47 -4.56,31.99 -6.06,65.86 -41.04,56.03zm-22.12 -97.23l31.5 0.31 9.93 -23.37c41.25,-8.09 37.28,21.41 15.82,35.63 -22.04,14.59 -42.44,8.47 -61.96,29.74 -15.52,16.91 -18.32,48.1 -7.11,68.31 12.59,22.69 44.73,23.56 61.02,2.36 0.51,0.71 1.06,1.1 1.32,2.26 0.35,1.51 2.39,3.45 3.08,3.98 6.06,4.71 -6.5,1.64 9.64,4.06 6.37,0.95 16.12,-0.35 22.5,-1.15 3.26,-32.67 28.87,-132.57 17.83,-154.25 -20.45,-40.13 -108.12,-26.11 -103.57,32.12z"/>
   <path class="fil1" d="M526.71 676.46c2.54,-27.88 8.04,-44.75 39.11,-37.4l-0.76 36.92 -15.32 0.49 -6.8 0.03 -16.23 -0.04zm62.84 52.75l-33.44 -1.07c-3.41,25.92 -8.45,36.69 -34.52,30.75 -5.58,-15 -6.61,-36.09 0.96,-54.29l73.19 -1.46c9.98,-45.81 15.3,-91.74 -35.7,-95 -50.85,-3.24 -63.28,28.88 -70.89,72.94 -6.9,39.96 -17.5,93.94 21.42,106.45 48.33,15.54 76.38,-14.96 78.98,-58.32z"/>
   <path class="fil1" d="M469.91 720.23l-32.3 0.2 -9.53 28.67c-6.1,11.45 -13.59,12.13 -25.73,10.01 -9.83,-24.82 -0.71,-59.92 5.69,-87.84 10.26,-44.76 40.75,-49.09 37.02,2.54l34.16 0.59c3.72,-43.78 -11.22,-75.44 -61.48,-64.97 -35.53,7.39 -44.08,46.72 -50.45,85.63 -6.59,40.18 -12.81,88.51 32.97,94.57 49.31,6.52 65.45,-25.38 69.65,-69.4z"/>
   <path class="fil1" d="M910.48 784.81c68.37,2.14 32.13,-14.86 63.95,-46.87l11.39 46.34 35.53 0.97c-2.86,-24.43 -29.22,-74.05 -19.18,-93.8 13.08,-25.7 36.38,-51.67 46.44,-78.44 -19.66,-0.11 -35,-5.84 -44.03,9.16 -7.48,12.42 -10.52,24.82 -19.86,34.88l-8.28 -42.68 -34.71 -1.46c8.81,48.35 27.43,70.72 12.57,94.85 -13.09,21.24 -34.59,54.94 -43.82,77.05z"/>
   <polygon class="fil1" points="296.27,784.62 331.54,784.91 365.28,613.36 329.37,613 "/>
   <polygon class="fil1" points="334.33,588.67 370.46,589.05 376.6,555.26 340.2,555.13 "/>
  </g>
 </g>
</svg>
