<svg xmlns="http://www.w3.org/2000/svg" width="30.002" height="30.002" viewBox="0 0 30.002 30.002">
  <g id="Icon_ionic-ios-checkmark-circle-outline" data-name="Icon ionic-ios-checkmark-circle-outline" transform="translate(-3.375 -3.375)">
    <path id="Path_90" data-name="Path 90" d="M25.883,13.6l-1.269-1.305a.273.273,0,0,0-.2-.087h0a.262.262,0,0,0-.2.087l-8.8,8.864-3.2-3.2a.279.279,0,0,0-.4,0l-1.284,1.284a.287.287,0,0,0,0,.411l4.039,4.039a1.277,1.277,0,0,0,.844.411,1.338,1.338,0,0,0,.837-.4h.007l9.642-9.693A.308.308,0,0,0,25.883,13.6Z" transform="translate(0.182 0.227)" fill="#fff"/>
    <path id="Path_91" data-name="Path 91" d="M18.376,5.394A12.977,12.977,0,1,1,9.2,9.2a12.9,12.9,0,0,1,9.181-3.8m0-2.019a15,15,0,1,0,15,15,15,15,0,0,0-15-15Z" transform="translate(0 0)" fill="#fff"/>
  </g>
</svg>
